<?xml version="1.0" standalone="no"?>
<!DOCTYPE svg PUBLIC "-//W3C//DTD SVG 20010904//EN"
 "http://www.w3.org/TR/2001/REC-SVG-20010904/DTD/svg10.dtd">
<svg version="1.0" xmlns="http://www.w3.org/2000/svg"
 width="256.000000pt" height="256.000000pt" viewBox="0 0 256.000000 256.000000"
 preserveAspectRatio="xMidYMid meet">

<g transform="translate(0.000000,256.000000) scale(0.100000,-0.100000)"
fill="#000000" stroke="none">
<path d="M865 2506 c-352 -91 -643 -342 -784 -675 -35 -82 -67 -196 -77 -271
-6 -43 -4 -51 19 -74 53 -53 118 -19 132 70 10 69 52 198 87 269 94 188 241
342 419 439 65 36 189 88 189 81 0 -3 -29 -66 -65 -141 -36 -75 -65 -149 -65
-164 0 -56 75 -90 118 -52 28 24 222 437 222 472 0 35 -41 70 -79 70 -14 -1
-67 -11 -116 -24z"/>
<path d="M1753 2445 c-105 -23 -189 -71 -274 -155 -123 -121 -173 -243 -173
-415 1 -194 85 -352 247 -466 227 -159 535 -131 733 66 106 106 173 261 174
403 0 150 -71 312 -185 421 -144 136 -329 188 -522 146z m246 -154 c165 -51
275 -177 303 -347 29 -176 -72 -368 -235 -444 -262 -123 -558 33 -609 320 -20
119 21 252 109 350 108 120 280 168 432 121z"/>
<path d="M323 1146 c-94 -30 -183 -126 -203 -220 -8 -34 -10 -156 -8 -361 3
-303 4 -311 27 -355 32 -61 86 -116 146 -148 l50 -27 340 0 340 0 50 27 c60
32 114 87 146 148 24 44 24 51 27 364 4 387 2 397 -93 493 -91 91 -101 93
-474 92 -223 0 -317 -4 -348 -13z m687 -158 c18 -13 43 -36 54 -51 20 -27 21
-40 21 -342 0 -301 -1 -315 -21 -341 -11 -15 -33 -37 -48 -48 -26 -20 -40 -21
-341 -21 -301 0 -315 1 -341 21 -15 11 -37 33 -48 48 -20 26 -21 40 -21 341 0
302 1 315 21 342 11 15 36 38 54 51 32 22 38 22 335 22 297 0 303 0 335 -22z"/>
<path d="M2435 1135 c-14 -13 -25 -33 -25 -43 0 -35 -39 -170 -71 -248 -70
-168 -223 -349 -381 -451 -73 -47 -222 -117 -239 -111 -5 2 20 63 56 137 69
141 77 179 45 211 -25 25 -81 26 -103 3 -28 -32 -217 -443 -217 -473 0 -45 42
-72 99 -64 150 22 376 118 501 213 84 63 214 199 269 279 87 128 169 335 187
471 6 44 4 52 -19 75 -33 33 -71 33 -102 1z"/>
</g>
</svg>
